#FILENAME=fe112411
# xmcd CD database file
# Copyright (C) 1995-1998 Ti Kan
#
# Track frame offsets:
#	182
#	22035
#	45712
#	69422
#	88980
#	108805
#	123860
#	140175
#	161865
#	182102
#	198942
#	221752
#	240625
#	257577
#	279585
#	295672
#	312035
#
# Disc length: 4390 seconds
#
# Revision: 34553324
# Submitted via:  Kscd 1.2.5
#
DISCID=fe112411
DTITLE=Foreigner / The Very Best... And Beyond
TTITLE0=Soul Doctor
TTITLE1=Prisoner of Love
TTITLE2=With Heaven On Our Side
TTITLE3=Juke Box Hero
TTITLE4=Hot Blooded
TTITLE5=Cold As Ice
TTITLE6=Head Games
TTITLE7=Waiting For A Girl Like You
TTITLE8=Urgent
TTITLE9=Double Vision
TTITLE10=I Want To Know What Love Is
TTITLE11=Say You Will
TTITLE12=That Was Yesterday
TTITLE13=I Don't Want To Live Without You
TTITLE14=Rev On The Red Line
TTITLE15=Dirty White Boy
TTITLE16=Feels Like The First Time
EXTD=1992 Atlantic Recording Corp.\n\nYEAR: 1999  ID3G:  17
EXTT0=nderstood
EXTT1=you
EXTT2=r\nWith heaven, heaven on our side, on our side
EXTT3=x hero, he's got stars in his eyes\nStars in his eyes
EXTT4= for your sweet sweet thing
EXTT5= as cold as ice, oh yes I know\nYou're as cold as ice, cold as ice\n
EXTT6=s, why do you do it baby?\nHead games\n
EXTT7=n waiting\nWon't you come into my life?\nMy life?
EXTT8=. emer...\nIt's urgent
EXTT9=ion\nOoh, double vision\nYeah-ah, I get double vision, ooh . . .
EXTT10=nI wanna know what love is...\n
EXTT11=ight \nSay you will, say you will \nBe mine tonight 
EXTT12=somewhere deep in your heart\nYesterday will live on
EXTT13=...oh \nWithout your love 
EXTT14=you'll still be here and I'll be gone
EXTT15=yeah, I'm a dirty white boy\nDirty white boy, dirty white boy, yeah\n
EXTT16=ke the first time
PLAYORDER=
